<svg width="20" height="18" viewBox="0 0 20 18" fill="none" xmlns="http://www.w3.org/2000/svg">
    <path d="M0.16983 6.51064C0.39627 7.40771 0.829171 8.18746 1.46853 8.84991L10 18L18.5315 8.84991C19.1708 8.18746 19.6037 7.40771 19.8302 6.51064C20.0566 5.61357 20.0566 4.7234 19.8302 3.84014C19.6037 2.95687 19.1708 2.18401 18.5315 1.52156C17.8921 0.859114 17.1462 0.410581 16.2937 0.175963C15.4412 -0.0586544 14.5754 -0.0586544 13.6963 0.175963C12.8172 0.410581 12.0713 0.859114 11.4585 1.52156L10 3.3433L8.54146 1.52156C7.9021 0.859114 7.15618 0.410581 6.3037 0.175963C5.45122 -0.0586544 4.59207 -0.0586544 3.72627 0.175963C2.86047 0.410581 2.10789 0.859114 1.46853 1.52156C0.829171 2.18401 0.39627 2.95687 0.16983 3.84014C-0.05661 4.7234 -0.05661 5.61357 0.16983 6.51064Z" fill="currentColor"/>
</svg>
